<svg xmlns="http://www.w3.org/2000/svg" xmlns:xlink="http://www.w3.org/1999/xlink" width="400" zoomAndPan="magnify" viewBox="0 0 300 299.999988" height="400" preserveAspectRatio="xMidYMid meet" version="1.0"><defs><clipPath id="30f5f7e7da"><path d="M 26.359375 34.085938 L 258 34.085938 L 258 265 L 26.359375 265 Z M 26.359375 34.085938 " clip-rule="nonzero"/></clipPath><clipPath id="44014f735a"><path d="M 76 53 L 273.859375 53 L 273.859375 207 L 76 207 Z M 76 53 " clip-rule="nonzero"/></clipPath></defs><g clip-path="url(#30f5f7e7da)"><path fill="#61666b" d="M 243.5 149.523438 C 243.5 205.472656 197.859375 250.972656 141.8125 250.832031 C 86.199219 250.695312 40.777344 205.328125 40.636719 149.785156 C 40.496094 93.804688 86.050781 48.214844 142.066406 48.214844 C 168.125 48.214844 191.914062 58.082031 209.898438 74.269531 L 219.902344 64.273438 C 199.335938 45.523438 171.980469 34.078125 142.003906 34.097656 C 78.507812 34.132812 26.640625 85.847656 26.5 149.269531 C 26.359375 213.554688 79.109375 265.800781 143.632812 264.945312 C 206.976562 264.101562 258.09375 211.945312 257.632812 148.675781 C 257.550781 137.664062 255.914062 127.023438 252.941406 116.945312 L 241.308594 128.5625 C 242.742188 135.328125 243.5 142.339844 243.5 149.523438 " fill-opacity="1" fill-rule="nonzero"/></g><g clip-path="url(#44014f735a)"><path fill="#a1dd54" d="M 270.875 67.101562 L 259.957031 56.195312 C 258.46875 54.707031 256.515625 53.964844 254.5625 53.964844 C 252.609375 53.964844 250.660156 54.707031 249.167969 56.195312 L 138.585938 166.648438 L 100.496094 128.601562 C 99.003906 127.113281 97.054688 126.371094 95.101562 126.371094 C 93.148438 126.371094 91.195312 127.113281 89.707031 128.601562 L 78.789062 139.507812 C 75.808594 142.484375 75.808594 147.308594 78.789062 150.285156 L 133.191406 204.621094 C 134.679688 206.109375 136.632812 206.851562 138.585938 206.851562 C 140.535156 206.851562 142.488281 206.109375 143.976562 204.621094 L 270.875 77.875 C 273.855469 74.902344 273.855469 70.078125 270.875 67.101562 " fill-opacity="1" fill-rule="nonzero"/></g></svg>